<svg xmlns="http://www.w3.org/2000/svg"  viewBox="0 0 100 100" width="100px" height="100px"><path d="M0.009,75.001v-4h26.674l10.389-3.463	c0.571-0.189,1.196-0.113,1.704,0.209c3.248,2.06,7.099,3.253,11.232,3.253c11.59,0,21-9.408,21-21c0-11.591-9.409-21-21-21	c-11.592,0-21,9.409-21,21c0,4.133,1.193,7.984,3.253,11.232c0.323,0.508,0.399,1.133,0.209,1.704l-1.511,4.531l-4.601,1.533h-0.128	l2.152-6.453l-0.371-0.655c-1.916-3.539-3.004-7.589-3.004-11.892c0-13.8,11.198-25,24.999-25c13.8,0,25,11.2,25,25	c0,13.801-11.2,25-25,25c-3.688,0-7.191-0.799-10.344-2.235l-2.143-1.16l-9.881,3.293c-0.204,0.068-0.417,0.101-0.632,0.101H0.009z M66.973,71.002h33.034l-0.001,3.999H60.221C62.672,73.997,64.944,72.643,66.973,71.002z M39.847,66.059	c-1.016-0.645-2.267-0.799-3.407-0.417l-1.212,0.404c-0.78,0.26-1.525-0.485-1.265-1.265l0.404-1.212	c0.381-1.14,0.228-2.391-0.417-3.407c-1.864-2.937-2.941-6.417-2.941-10.161c0-10.485,8.512-19,19-19c10.485,0,19,8.515,19,19	c0,10.488-8.514,19-19,19C46.264,69.001,42.784,67.923,39.847,66.059z M67.008,50.001c0-9.38-7.62-17-17-17c-9.382,0-17,7.62-17,17	c0,3.353,0.964,6.463,2.631,9.091c0.724,1.143,1.035,2.484,0.904,3.805l-0.155,0.724l0.724-0.155	c1.321-0.131,2.663,0.18,3.805,0.904c2.628,1.667,5.737,2.631,9.09,2.631C59.388,67.001,67.008,59.383,67.008,50.001z M54.911,61.93	c-1.052-0.152-2.519-0.579-4.839-1.564c-5.796-2.468-9.424-8.788-9.678-9.164c-0.249-0.363-2.385-3.381-2.385-6.607	c0-3.26,1.623-4.913,2.131-5.512c0.712-0.839,1.593-1.083,2.213-1.083l1.059,0.015c0.112,0.004,0.312,0.011,0.528,0.06	c0.252,0.057,0.52,0.171,0.776,0.38c0.347,0.284,0.601,0.688,0.807,1.18c0.521,1.244,1.515,3.983,1.657,4.304	c0.117,0.253,0.261,0.641,0.235,1.111c-0.004,0.073-0.012,0.148-0.025,0.223c-0.031,0.179-0.085,0.355-0.167,0.527	c-0.157,0.341-0.301,0.716-0.664,1.172c-0.208,0.263-0.587,0.788-0.869,1.087l-0.064,0.071l0.125,0.225	c0.42,0.737,1.369,2.273,2.679,3.528c1.94,1.867,3.497,2.395,4.136,2.741l0.069-0.085c0.415-0.519,1.209-1.541,1.489-1.997	c0.084-0.135,0.18-0.267,0.293-0.387c0.436-0.461,0.969-0.587,1.476-0.508c0.26,0.041,0.503,0.133,0.664,0.197	c0.581,0.225,3.309,1.68,3.809,1.949c0.283,0.152,0.759,0.375,1.047,0.613c0.133,0.109,0.277,0.259,0.393,0.464	c0.088,0.163,0.127,0.319,0.148,0.417c0.131,0.641,0.033,1.872-0.391,3.157c-0.608,1.829-3.208,3.329-4.505,3.455	C56.641,61.941,55.993,62.086,54.911,61.93z M56.861,59.909c0.685-0.067,2.503-1.191,2.804-2.092	c0.271-0.824,0.339-1.513,0.341-1.877l-0.004-0.076l-0.065-0.036c-0.105-0.055-0.264-0.136-0.52-0.273	c-0.608-0.328-3.177-1.688-3.588-1.848l-0.064-0.023l-0.12,0.183c-0.481,0.701-1.341,1.788-1.607,2.117	c-0.075,0.092-0.159,0.184-0.255,0.271c-0.42,0.375-0.943,0.517-1.508,0.388c-0.239-0.055-0.461-0.152-0.663-0.26	c-0.444-0.24-2.375-0.947-4.571-3.059c-1.723-1.653-2.869-3.676-3.199-4.284c-0.079-0.145-0.143-0.297-0.188-0.455	c-0.159-0.553-0.039-1.032,0.183-1.4c0.135-0.224,0.304-0.403,0.395-0.499c0.211-0.221,0.424-0.536,0.757-0.956	c0.179-0.227,0.216-0.34,0.424-0.792l-0.06-0.18c-0.169-0.38-1.221-3.259-1.68-4.353c-0.068-0.163-0.125-0.263-0.165-0.323	l-0.051-0.061c-0.02-0.001-0.051-0.004-0.103-0.007l-1.016-0.013c-0.103,0-0.395,0.045-0.677,0.377	c-0.484,0.572-1.655,1.737-1.655,4.217c0,2.52,1.745,5.056,2.041,5.485c0.383,0.568,3.676,6.261,8.805,8.444	c2.253,0.957,3.537,1.309,4.343,1.425C55.971,60.062,56.284,59.966,56.861,59.909z"/></svg>